<?xml version="1.0" encoding="UTF-8" standalone="no"?>
<!DOCTYPE svg PUBLIC "-//W3C//DTD SVG 1.1//EN" "http://www.w3.org/Graphics/SVG/1.1/DTD/svg11.dtd">
<svg width="100%" height="100%" viewBox="0 0 6826 9425" version="1.1" xmlns="http://www.w3.org/2000/svg" xmlns:xlink="http://www.w3.org/1999/xlink" xml:space="preserve" xmlns:serif="http://www.serif.com/" style="fill-rule:evenodd;clip-rule:evenodd;stroke-linejoin:round;stroke-miterlimit:2;">
    <g transform="matrix(4.16667,0,0,4.16667,-2341.81,-0.00880778)">
        <g transform="matrix(-1,-1.22465e-16,1.22465e-16,-1,2762.18,2261.95)">
            <path d="M1690,1065.74C1744.44,1122.56 1734.45,1206.58 1689.66,1266.4C1669.46,1293.38 1636.12,1315.21 1601.21,1311.53C1592.47,1310.61 1568.57,1301.8 1562.93,1302.46C1559.68,1302.84 1547.47,1329.75 1545.9,1334.63C1539.08,1355.74 1535.21,1373.76 1527.09,1395.82C1499.01,1472.07 1492.59,1535.98 1478.51,1615.24C1476.53,1626.36 1465.16,1680.52 1466.33,1686.26C1468.33,1696.07 1483.83,1711.3 1492.59,1716.14C1530.31,1736.97 1547.04,1726.75 1584.48,1732.25C1602.33,1734.87 1614.36,1754.23 1632.91,1753.8C1638.22,1753.68 1670.21,1745.44 1673.9,1742.63C1680.48,1737.64 1685.45,1713.84 1694.07,1706.8C1705.21,1697.71 1728.54,1697.3 1740.54,1691.27C1747.08,1687.99 1755.96,1676.44 1763.28,1672.01C1821.29,1636.98 1922.97,1674.03 1986.9,1677.8C2004.99,1678.87 2026.82,1677.39 2044.97,1675.71C2067.23,1673.64 2090.75,1662.97 2111.75,1674.95C2121.07,1680.26 2127.15,1689.95 2135.31,1695.39C2144.71,1701.64 2155.99,1703.37 2166.6,1710.1C2180.66,1719.02 2200.43,1736.98 2200.14,1754.73C2198.87,1830.52 2130.53,1883.21 2079.03,1927.78C2038.17,1963.14 1986.62,2019.95 1932.43,2029.18C1911.31,2032.78 1887.03,2030.24 1865.94,2026.62C1863.34,2034.45 1863.22,2040.43 1859.6,2048.35C1852.57,2063.78 1816.92,2110.91 1804,2122.75C1789.44,2136.08 1762.75,2148.2 1742.95,2149.68C1732.93,2150.43 1725.26,2147.55 1716.99,2147.57C1706.37,2147.59 1689.22,2153.25 1676.94,2153.73C1668.49,2154.06 1661.76,2151 1653.87,2152.61C1651.54,2162.33 1654.85,2172.72 1651.05,2183.8C1648.1,2192.4 1637.11,2199.03 1635.01,2203.77C1632.91,2208.51 1633.69,2217.53 1631.45,2224.21C1624.35,2245.4 1577.59,2262.58 1556.96,2261.93C1548.87,2261.68 1543.46,2256.28 1536.74,2255.82C1530.59,2255.4 1525.92,2258.76 1520.69,2259.03C1513.29,2259.41 1483.43,2251.75 1476.57,2248.13C1471.51,2245.46 1467.54,2237.91 1466.57,2237.68C1458.53,2235.84 1445.65,2237.31 1435.94,2234.75C1421.08,2230.84 1398.33,2212.16 1384.93,2211.58C1376.88,2211.23 1373.15,2216.8 1366.8,2217.66C1359.57,2218.63 1353.74,2214.98 1347.17,2215.76C1339.61,2216.66 1323.69,2226.58 1312.08,2228.83C1290.6,2233 1264.82,2235.12 1243.25,2231.45C1233.19,2229.73 1221.61,2223.76 1212.97,2223.57C1203.16,2223.35 1195.06,2229.23 1186.69,2229.62C1167.24,2230.52 1141.16,2221.05 1126.13,2208.57C1114.09,2198.57 1111.53,2188.03 1116.5,2173.26C1118.24,2168.1 1123.74,2163.3 1123.78,2158.78C1123.8,2156.98 1120.45,2146.82 1119.53,2146.14C1117.65,2144.74 1093.69,2142.01 1087.95,2140.74C1082.21,2139.47 1074.49,2134.65 1070.52,2134.13C1064.07,2133.29 1050.06,2136.46 1040.9,2135.8C1002.08,2133 972.16,2106.31 949.13,2077.57C931.93,2056.1 915.02,2030.69 906.08,2004.54C888.08,2006.67 871.64,2010.73 853.23,2009.47C785.31,2004.82 746.42,1955.69 698.91,1915.79C659.88,1883 621.63,1860 592.35,1816.35C571.99,1786.01 545.28,1736.07 575.93,1704.68C598.64,1681.42 618.91,1675.92 645.77,1662.52C653.73,1658.55 663.65,1648.31 670.82,1645.57C715.24,1628.59 778.74,1634.35 824.5,1644.21C831.49,1645.72 840.86,1651.65 846.91,1651.78C856.49,1651.99 877.07,1645.14 889.01,1643.75C925.56,1639.51 981.22,1641.2 1013.82,1658.89C1022.96,1663.85 1031.33,1672.79 1039.26,1677.45C1064.75,1692.39 1076.12,1689.14 1095.61,1717.1C1098.19,1720.8 1107.51,1739.39 1108.94,1739.51C1110.89,1739.66 1121.86,1730.88 1127.51,1730.1C1133.55,1729.26 1137.5,1732.04 1142.76,1731.69C1148.02,1731.34 1152.39,1727.59 1158.98,1727.57C1165.57,1727.55 1171.06,1730.8 1178.84,1729.63C1196.62,1726.95 1225.11,1714.28 1243.15,1711.9C1253.95,1710.48 1276.98,1714.37 1284.06,1712.53C1291.14,1710.69 1315.83,1683.77 1316.87,1675.92C1313.2,1651.01 1310.31,1623.98 1312,1598.75C1314.49,1561.4 1330.54,1513.16 1329.84,1477.05C1328.56,1411.56 1304.39,1354.06 1275.63,1297.08C1273.08,1292.03 1270.43,1280.1 1268.21,1276.92C1264.51,1271.63 1234.28,1282.72 1226.74,1283.49C1192.27,1286.98 1142.07,1258.18 1123.17,1229.55C1104.82,1201.75 1096.28,1160.68 1095.96,1127.74C1086.3,1134.54 1062.54,1149.62 1051.08,1147.77C1044.44,1146.7 1032.57,1123.17 1032.04,1116.49C1031.42,1108.73 1049.94,1083.32 1055.94,1076.69C1069.62,1061.57 1082.61,1060.08 1097.85,1050.6C1109.33,1043.46 1118.79,1030.37 1129.03,1021.78C1149.72,1004.41 1161.38,1001.97 1176.82,975.57C1189.07,954.63 1179.47,951.22 1182.16,930.91C1183.65,919.69 1191.9,908.86 1191.97,896.73C1192.03,887.82 1189.72,859.43 1187.06,851.67C1183.75,842.02 1172.18,830.15 1167.63,819.1C1153.9,785.72 1155.14,722.78 1160.23,686.99C1164.14,659.49 1178.05,579.91 1196.59,562.37C1198.69,560.38 1202.84,560.18 1205.13,557.87C1208.54,554.44 1206.25,550.31 1211.81,548.6C1223.27,545.08 1230.15,556.7 1241.97,555.72C1224.6,541.78 1216.03,520.86 1208.31,500.2C1203.74,492.44 1225.1,481.14 1227.96,483.75C1228.61,488.92 1222.45,489.75 1221.94,494.79C1220.87,505.46 1232.22,519.33 1244,514.72L1208.88,387.83C1182.43,377.39 1175.8,338.26 1153.95,328.76C1146.77,325.64 1130.86,323.58 1127.58,314.83C1116.35,284.85 1188.5,323.07 1191.97,319.72C1185.76,304.21 1180.92,287.71 1174.35,272.37C1167.74,256.94 1160.83,245.63 1154.99,229.73C1150.61,217.81 1140.33,208.09 1162.99,205.74C1175.23,204.47 1197.34,203.17 1205.96,211.73C1220.02,170.24 1262.09,152.66 1291.01,121.76C1294.65,117.87 1296.62,112.66 1299.99,108.74C1304.7,103.26 1314.1,100.38 1315.89,90.64C1317.53,81.7 1311.96,60.39 1324.98,77.73C1346.93,55.4 1362.45,27.44 1385.24,5.99C1419.3,-3.93 1455,0.31 1489.14,5.59C1498.75,19.64 1500.57,38.15 1510.32,52.41C1515.38,59.81 1523.82,65.61 1528.81,73.92C1541.41,94.89 1541.45,120.59 1535.98,143.74C1552.49,141.73 1571.31,154.81 1583.82,164.91C1622.99,196.51 1653.53,243.25 1660.01,293.74C1671.98,283.12 1679.53,252.76 1698.51,256.2C1729.54,261.82 1699.61,299.58 1696.85,311.6C1693.8,324.83 1696.94,341.19 1687.99,353.72C1689.21,354.7 1709.07,342.5 1716.89,355.85C1722.03,364.62 1717.57,370.08 1711.01,375.77C1696.89,388.01 1690.83,387.57 1676.58,395.32C1651.99,408.68 1650.42,432.56 1639.71,454.45C1628.77,476.82 1615.05,499.91 1602.78,521.69C1612.77,551.39 1599.77,537.88 1590.96,545.7C1586.93,549.28 1582.97,565.9 1578,570.74C1610.82,569.47 1625.87,591.35 1634.98,619.74C1653.88,678.63 1677.15,766.54 1652.95,825.69C1647.85,838.14 1635.49,852.89 1632.88,865.62C1631.03,874.6 1628.88,894.89 1628.02,904.74C1626.33,924.33 1634.23,942.84 1655.99,943.75C1648.75,950.25 1638.36,952.94 1637.85,964.77C1637.48,973.42 1646.84,983.82 1652.93,989.79C1667.04,1003.62 1705.82,1019.85 1725.47,1027.25C1745.12,1034.65 1782.88,1037.39 1757.94,1068.68C1730.57,1103.02 1718.57,1081.66 1691.99,1063.73C1690.17,1063.31 1689.49,1063.96 1689.99,1065.73L1690,1065.74Z" style="fill-rule:nonzero;"/>
        </g>
        <g transform="matrix(1.21292,0,0,1.32989,-43.3927,-326.491)">
            <path d="M1115.65,1426.99C1115.46,1419.96 1115.36,1414.68 1115.36,1411.17C1115.36,1390.46 1118.29,1372.59 1124.15,1357.56C1128.45,1346.23 1135.38,1334.8 1144.95,1323.28C1151.98,1314.88 1164.63,1302.62 1182.89,1286.51C1201.15,1270.4 1213.02,1257.56 1218.49,1247.99C1223.95,1238.41 1226.69,1227.96 1226.69,1216.64C1226.69,1196.13 1218.68,1178.11 1202.66,1162.58C1186.65,1147.06 1167.02,1139.29 1143.78,1139.29C1121.32,1139.29 1102.57,1146.32 1087.53,1160.39C1072.49,1174.45 1062.63,1196.42 1057.94,1226.31L1003.74,1219.86C1008.62,1179.82 1023.12,1149.16 1047.25,1127.87C1071.37,1106.58 1103.25,1095.93 1142.9,1095.93C1184.89,1095.93 1218.39,1107.36 1243.39,1130.21C1268.39,1153.06 1280.89,1180.7 1280.89,1213.12C1280.89,1231.87 1276.49,1249.16 1267.7,1264.98C1258.91,1280.8 1241.73,1300.04 1216.14,1322.69C1198.95,1337.93 1187.72,1349.16 1182.45,1356.38C1177.18,1363.61 1173.27,1371.91 1170.73,1381.29C1168.19,1390.66 1166.73,1405.89 1166.34,1426.99L1115.65,1426.99ZM1112.43,1532.75L1112.43,1472.69L1172.49,1472.69L1172.49,1532.75L1112.43,1532.75Z" style="fill:white;fill-rule:nonzero;"/>
        </g>
    </g>
</svg>
