# OBJ file
v 49506.4 21912.4 23589.4
v 49275.7 22036.6 23639.3
v 49357.6 21837 23580.6
v 49459.4 21660.1 23676.9
v 49507.5 22183.4 23631
v 49644.6 22405.6 23592.7
v 49359.8 21752 23598.6
v 49643 22212.4 23600.9
v 49531.8 21839.5 23666
v 49568.3 22120.9 23686.8
v 49286.7 22207.5 23762.9
v 49158.3 22143.7 23694.2
v 49281.4 21661.8 23796
v 49380.4 22335.6 23770.2
v 49501.6 22301.8 23726.3
v 49435.3 21626.1 23773.4
v 49523.5 21641.1 23922.7
v 49226.3 22253.7 23836.8
v 49669.3 22420 23766.7
v 49256.2 21629.7 23914.2
v 49095.8 22062.1 23873.5
v 49135.2 22207.6 23798.4
v 49176.3 21708.7 23901.8
v 49603.7 22032.7 23814
v 49570 22420.9 23760.4
v 49251.2 22367.6 23923
v 49591.1 21885.3 23967.4
v 49672.7 22179.7 24203.1
v 49657.3 22491 23926.7
v 48996.7 22126.1 23921.3
v 49002.2 22255.2 23893.1
v 49170.9 22320.1 23820.2
v 49367 22505.9 23995
v 49767.1 22421.9 23858.7
v 49096.1 22361.5 24033.3
v 49697.9 22261.9 23782.5
v 49329.1 22556.6 24158.3
v 49515.8 21689.9 24308.6
v 49141.2 21819.9 24019.1
v 49018.3 22330.3 24078.1
v 49153.4 22548.4 24222.7
v 49632.8 22545.4 24083.2
v 49766.2 22239.2 24289.7
v 49019 21990.2 24150.8
v 49509.6 21628.5 24139.2
v 48990.6 22135.3 24308.7
v 49237.3 21638 24304.3
v 49137.4 21727.2 24234.9
v 49596.6 21915.2 24458.4
v 49031.9 21918.1 24418.9
v 49754.7 22401.1 24432.5
v 49025.7 22174.7 24499.3
v 49170.6 22554.1 24458.7
v 49657.8 22551.9 24326.7
v 49064.6 21663.7 24529.7
v 49783 22177.9 24588
v 49040.8 22383.8 24378.2
v 49395.5 21647.2 24314.6
v 49095.6 21631.4 24656
v 48977.3 21842.4 24606.5
v 49444.1 21869.9 24648
v 49697.4 22128.5 24526.5
v 49739.7 22540.8 24671.3
v 49240 21649.6 24657.5
v 49072.9 22301.5 24567.4
v 49650.5 22558.7 24386
v 48995.8 22231.7 24640.1
v 49523.2 21930.7 24726.4
v 49794.6 22319.7 24428
v 49258.9 21809.8 24842.7
v 49145.4 21743.3 24853.3
v 48985.3 21982.3 24632.2
v 48909.4 21990.6 24760.9
v 49721.3 22553.3 24999.8
v 49025.6 21714 24739.5
v 49475.1 22065 24897.2
v 49163.5 22404.1 24723.2
v 49788.8 22419.3 24768.9
v 49624.3 22106.5 24895.2
v 49763.9 22456.7 24798.3
v 48891.9 21807.4 24818.3
v 48991.2 22250 24965.7
v 49250.8 22398.7 24838.5
v 49325.1 22551.4 24754.9
v 49278.4 21975.3 25131
v 49712.3 22157 25098.8
v 49790.7 22253.7 25093.3
v 49390.9 22497.8 25021.8
v 49128.2 21814 25138.9
v 49354.6 22240.3 25050.9
v 48964.7 21788.8 25215.2
v 49456.7 22175.1 24976.2
v 49119.1 22279.6 24929.5
v 49273.1 22277.1 24970.5
v 49742.6 22506.5 25156.2
v 49560.2 22561.1 25073.7
v 49794.2 22444.8 25072.9
v 48884.4 21808.9 25197.2
v 49459.7 22285.4 25156.8
v 49730.7 22305.8 25242.5
v 49455.6 22444.5 25177.7
v 48874.2 22145 25062.9
v 48990 22265.4 25203.2
v 49278.5 22145.4 25319.4
v 49639.4 22503.8 25196.5
v 48857.2 21955.1 25068.9
v 49612.5 22321.8 25196.7
v 49736.3 22432.9 25270.8
v 49103 21964.1 25386.4
v 49192.5 22024.2 25314.5
v 48873.8 22117.8 25459.4
v 49185 22022.5 25446.5
v 49175.3 22264.8 25370.4
v 49044.4 22192.4 25574.8
v 49192.8 22214.1 25460.2
v 49001.1 22016.9 25521
v 48917.2 22210.8 25421.2
v 49145.2 22113.3 25502.6
v 48922.8 22141.3 25578.2
v 49031.3 22134.5 25598.4
vn 0.4858966 -0.1012223 -0.8681351
vn -0.3098266 0.3433193 -0.886645
vn -0.03926001 0.01661624 -0.9990908
vn 0.4343785 -0.642837 -0.6309326
vn -0.1933806 0.2648483 -0.9447007
vn -0.1791787 0.64725 -0.7409201
vn -0.6987937 -0.3537812 -0.6217123
vn 0.7990716 -0.2901123 -0.5266112
vn 0.9373581 -0.2381355 -0.254266
vn 0.785046 -0.2448063 -0.5690101
vn -0.3505655 0.6084192 -0.7119901
vn -0.8012325 -0.08718698 -0.591967
vn -0.4618311 -0.7694535 -0.4411954
vn -0.3807557 0.5806941 -0.7195968
vn -0.4908342 0.6198119 -0.612303
vn 0.03717872 -0.9723094 -0.2307208
vn 0.9249527 -0.3759177 -0.05611132
vn 0.2584776 0.6358849 -0.7272136
vn 0.8905492 0.2624136 -0.3715658
vn -0.3668347 -0.9289119 -0.05054622
vn -0.8114231 -0.3909793 -0.4344282
vn -0.7102799 0.2992427 -0.637147
vn -0.8727576 -0.3335991 -0.3563788
vn 0.9485615 -0.2993976 -0.1029173
vn -0.3796587 0.8016048 -0.4618321
vn -0.2893023 0.7167642 -0.6344709
vn 0.9746064 -0.2159941 -0.05906694
vn 0.8864567 -0.45619 -0.07800782
vn 0.1414986 0.9468943 -0.2887377
vn -0.9638928 -0.149761 -0.2201872
vn -0.6746207 0.5295493 -0.5142611
vn -0.320762 0.7498754 -0.5786178
vn -0.3028346 0.8005541 -0.5171115
vn 0.9507912 0.2896379 -0.1100277
vn -0.6860637 0.653004 -0.3207841
vn 0.9098805 -0.3799894 -0.1665096
vn -0.0935981 0.9559205 -0.2783083
vn 0.7418568 -0.5971196 0.3051176
vn -0.9156266 -0.3362316 -0.2204002
vn -0.9503046 0.3100968 -0.02759045
vn -0.5887963 0.7657725 -0.2586724
vn 0.05091019 0.9961351 -0.07157478
vn 0.9210151 -0.3718043 -0.1161585
vn -0.9318749 -0.3471633 -0.1052946
vn 0.1514645 -0.9857829 0.07273596
vn -0.9981403 0.03320787 0.05111761
vn -0.2178697 -0.9751413 -0.04039953
vn -0.8418746 -0.5114905 -0.1721181
vn 0.9134079 -0.4008022 0.07101907
vn -0.9623598 -0.1967727 -0.1874677
vn 0.9367768 0.3466585 -0.04771911
vn -0.9977705 0.048241 0.04611739
vn -0.302908 0.9487746 0.08985176
vn 0.5071672 0.8592849 -0.06641537
vn -0.814675 -0.5240211 -0.2484079
vn 0.7308807 -0.6823799 -0.01308067
vn -0.9098727 0.4098865 0.0642245
vn 0.3702426 -0.8947046 0.2498485
vn -0.09002128 -0.9869624 0.1334221
vn -0.9354105 -0.1692748 -0.3104082
vn 0.6151013 -0.6934604 0.3751841
vn 0.7415261 -0.6706827 -0.01799099
vn 0.8485937 0.5238643 -0.07385774
vn 0.5270082 -0.7664341 0.3672072
vn -0.7814664 0.605814 0.1493302
vn 0.0111396 0.9998914 -0.009648539
vn -0.9710643 0.1843351 -0.1518377
vn 0.5884453 -0.7105907 0.3857371
vn 0.9527371 0.2585729 -0.1594741
vn 0.5801037 -0.7254292 0.3704487
vn 0.2118698 -0.9184865 0.3339067
vn -0.947865 0.2282742 -0.2223574
vn -0.9138533 0.2495686 -0.3202932
vn 0.3548769 0.9241754 0.1412874
vn -0.5000113 -0.8642589 0.05518429
vn 0.6112671 -0.4782133 0.6306065
vn -0.7428021 0.596472 0.3040826
vn 0.7810133 0.6131765 -0.1184603
vn 0.5540394 -0.7724485 0.310425
vn 0.9045216 0.4226875 -0.05635471
vn -0.8640448 -0.4852692 -0.1339419
vn -0.7552778 0.638173 -0.1493005
vn -0.6503878 0.5982556 0.4680661
vn -0.2527723 0.9584615 0.1321281
vn 0.7090248 -0.5535532 0.4368785
vn 0.2502498 -0.898279 0.3612061
vn 0.8540857 -0.4593394 0.2440183
vn -0.6603151 0.6214946 0.4215786
vn 0.5524139 -0.7444434 0.375024
vn 0.3084322 0.5556367 0.7720994
vn -0.01974263 -0.9510086 0.3085335
vn 0.4311576 -0.6400807 0.6359243
vn -0.3574404 0.9135663 0.1939924
vn -0.3360485 0.8767709 0.3440119
vn 0.8427014 0.5089119 0.1756792
vn -0.1117846 0.9856979 0.1261109
vn 0.9153736 0.3263775 0.2357305
vn -0.8437306 -0.4637939 0.2702105
vn -0.3017535 -0.6016207 0.7395928
vn 0.687404 -0.2771803 0.6713023
vn -0.5763404 0.2148883 0.7884508
vn -0.9067983 0.4066098 -0.1112894
vn -0.2668154 0.9633025 0.02928807
vn 0.8975732 -0.03431901 0.4395275
vn -0.1967565 0.6934903 0.6930788
vn -0.9991385 -0.01773695 -0.03751955
vn -0.2750328 -0.2618555 0.9250885
vn -0.01091613 0.2215044 0.9750983
vn 0.4372019 -0.7661076 0.4710983
vn 0.710552 -0.6028336 0.3629152
vn -0.9720522 -0.088561 0.2174203
vn 0.6951 -0.4928654 0.5233734
vn 0.1715266 0.964097 0.2027202
vn 0.04294734 0.8387408 0.5428345
vn 0.7532752 0.2743941 0.5977327
vn -0.1707796 -0.7096038 0.6835911
vn -0.5058861 0.8482727 0.1565651
vn 0.5648108 -0.234061 0.7913306
vn -0.6745982 0.165017 0.7195045
vn 0.2636471 -0.341592 0.9021115
f 7//7 3//3 4//4
f 1//1 4//4 3//3
f 9//9 4//4 1//1
f 3//3 7//7 2//2
f 1//1 10//10 9//9
f 2//2 5//5 3//3
f 5//5 1//1 3//3
f 5//5 10//10 1//1
f 8//8 5//5 6//6
f 2//2 14//14 5//5
f 24//24 10//10 8//8
f 10//10 5//5 8//8
f 12//12 2//2 7//7
f 12//12 11//11 2//2
f 5//5 14//14 15//15
f 5//5 15//15 6//6
f 15//15 25//25 6//6
f 19//19 8//8 6//6
f 36//36 24//24 8//8
f 13//13 4//4 16//16
f 4//4 13//13 7//7
f 9//9 17//17 4//4
f 24//24 9//9 10//10
f 12//12 18//18 11//11
f 11//11 14//14 2//2
f 19//19 36//36 8//8
f 29//29 19//19 6//6
f 6//6 25//25 29//29
f 4//4 17//17 16//16
f 12//12 32//32 18//18
f 22//22 32//32 12//12
f 36//36 19//19 34//34
f 13//13 23//23 7//7
f 7//7 23//23 12//12
f 22//22 12//12 21//21
f 45//45 16//16 17//17
f 27//27 9//9 24//24
f 23//23 39//39 12//12
f 28//28 24//24 36//36
f 26//26 14//14 11//11
f 15//15 14//14 26//26
f 16//16 20//20 13//13
f 39//39 21//21 12//12
f 30//30 31//31 22//22
f 30//30 22//22 21//21
f 32//32 26//26 18//18
f 26//26 11//11 18//18
f 33//33 15//15 26//26
f 25//25 15//15 33//33
f 29//29 34//34 19//19
f 13//13 20//20 23//23
f 35//35 22//22 31//31
f 27//27 17//17 9//9
f 44//44 21//21 39//39
f 40//40 35//35 31//31
f 32//32 22//22 35//35
f 29//29 25//25 33//33
f 37//37 33//33 26//26
f 23//23 20//20 48//48
f 21//21 44//44 30//30
f 30//30 40//40 31//31
f 46//46 40//40 30//30
f 34//34 43//43 36//36
f 26//26 32//32 37//37
f 37//37 29//29 33//33
f 29//29 37//37 42//42
f 48//48 20//20 47//47
f 17//17 38//38 45//45
f 48//48 39//39 23//23
f 24//24 49//49 27//27
f 35//35 41//41 32//32
f 37//37 32//32 41//41
f 49//49 17//17 27//27
f 43//43 28//28 36//36
f 57//57 35//35 40//40
f 54//54 29//29 42//42
f 58//58 45//45 38//38
f 44//44 46//46 30//30
f 57//57 41//41 35//35
f 54//54 34//34 29//29
f 17//17 49//49 38//38
f 51//51 43//43 34//34
f 53//53 42//42 37//37
f 47//47 20//20 45//45
f 39//39 48//48 50//50
f 50//50 44//44 39//39
f 53//53 54//54 42//42
f 58//58 47//47 45//45
f 46//46 44//44 52//52
f 24//24 28//28 49//49
f 57//57 53//53 41//41
f 50//50 52//52 44//44
f 43//43 62//62 28//28
f 46//46 57//57 40//40
f 51//51 34//34 54//54
f 55//55 48//48 47//47
f 50//50 48//48 55//55
f 62//62 49//49 28//28
f 53//53 37//37 41//41
f 58//58 59//59 47//47
f 52//52 57//57 46//46
f 59//59 55//55 47//47
f 51//51 69//69 43//43
f 54//54 53//53 66//66
f 69//69 56//56 43//43
f 65//65 53//53 57//57
f 63//63 51//51 54//54
f 66//66 63//63 54//54
f 58//58 64//64 59//59
f 60//60 50//50 55//55
f 56//56 62//62 43//43
f 65//65 57//57 52//52
f 49//49 61//61 38//38
f 67//67 50//50 60//60
f 52//52 50//50 67//67
f 63//63 80//80 51//51
f 65//65 77//77 53//53
f 38//38 61//61 58//58
f 80//80 69//69 51//51
f 60//60 55//55 75//75
f 61//61 49//49 68//68
f 84//84 66//66 53//53
f 75//75 55//55 59//59
f 58//58 61//61 64//64
f 68//68 49//49 79//79
f 67//67 65//65 52//52
f 77//77 84//84 53//53
f 84//84 96//96 66//66
f 49//49 62//62 79//79
f 60//60 72//72 67//67
f 73//73 72//72 60//60
f 71//71 59//59 64//64
f 70//70 64//64 61//61
f 60//60 81//81 73//73
f 78//78 69//69 80//80
f 59//59 71//71 75//75
f 70//70 71//71 64//64
f 75//75 81//81 60//60
f 62//62 56//56 86//86
f 93//93 77//77 65//65
f 79//79 76//76 68//68
f 72//72 82//82 67//67
f 82//82 65//65 67//67
f 82//82 93//93 65//65
f 77//77 83//83 84//84
f 74//74 63//63 66//66
f 73//73 82//82 72//72
f 79//79 62//62 86//86
f 61//61 68//68 70//70
f 77//77 93//93 83//83
f 97//97 78//78 80//80
f 80//80 63//63 95//95
f 74//74 95//95 63//63
f 68//68 85//85 70//70
f 68//68 76//76 85//85
f 88//88 84//84 83//83
f 81//81 75//75 91//91
f 84//84 88//88 96//96
f 71//71 91//91 75//75
f 70//70 89//89 71//71
f 73//73 102//102 82//82
f 76//76 79//79 92//92
f 93//93 94//94 83//83
f 95//95 97//97 80//80
f 81//81 91//91 98//98
f 81//81 106//106 73//73
f 106//106 102//102 73//73
f 76//76 92//92 85//85
f 86//86 56//56 87//87
f 94//94 88//88 83//83
f 89//89 91//91 71//71
f 81//81 98//98 106//106
f 79//79 86//86 92//92
f 103//103 82//82 102//102
f 89//89 70//70 85//85
f 101//101 94//94 90//90
f 101//101 88//88 94//94
f 88//88 105//105 96//96
f 99//99 90//90 92//92
f 86//86 87//87 100//100
f 103//103 93//93 82//82
f 103//103 94//94 93//93
f 74//74 96//96 105//105
f 95//95 74//74 105//105
f 92//92 104//104 85//85
f 104//104 92//92 90//90
f 92//92 86//86 99//99
f 99//99 101//101 90//90
f 97//97 100//100 87//87
f 97//97 95//95 100//100
f 88//88 101//101 105//105
f 90//90 113//113 104//104
f 111//111 102//102 106//106
f 90//90 94//94 113//113
f 86//86 107//107 99//99
f 100//100 107//107 86//86
f 99//99 107//107 101//101
f 108//108 100//100 95//95
f 101//101 107//107 105//105
f 113//113 94//94 103//103
f 108//108 95//95 105//105
f 109//109 91//91 89//89
f 89//89 85//85 110//110
f 98//98 111//111 106//106
f 105//105 107//107 108//108
f 110//110 109//109 89//89
f 104//104 110//110 85//85
f 117//117 103//103 102//102
f 108//108 107//107 100//100
f 91//91 116//116 98//98
f 98//98 116//116 111//111
f 117//117 113//113 103//103
f 109//109 110//110 112//112
f 104//104 112//112 110//110
f 117//117 102//102 111//111
f 115//115 104//104 113//113
f 109//109 116//116 91//91
f 116//116 109//109 112//112
f 104//104 115//115 112//112
f 113//113 117//117 114//114
f 116//116 112//112 118//118
f 116//116 119//119 111//111
f 118//118 112//112 115//115
f 117//117 119//119 114//114
f 115//115 113//113 114//114
f 111//111 119//119 117//117
f 118//118 115//115 114//114
f 116//116 120//120 119//119
f 118//118 114//114 120//120
f 116//116 118//118 120//120
f 114//114 119//119 120//120
